<svg width="45" height="45" viewBox="0 0 45 45" fill="none" xmlns="http://www.w3.org/2000/svg">
<g clip-path="url(#clip0_33_15)">
<path d="M22.5 45C10.0931 45 0 34.9069 0 22.5C0 10.0931 10.0931 0 22.5 0C34.9069 0 45 10.0931 45 22.5C45 34.9069 34.9069 45 22.5 45ZM22.5 1.875C11.1281 1.875 1.875 11.1281 1.875 22.5C1.875 33.8719 11.1281 43.125 22.5 43.125C33.8719 43.125 43.125 33.8719 43.125 22.5C43.125 11.1281 33.8719 1.875 22.5 1.875ZM29.4937 24.5475C30.6225 23.4188 30.6225 21.585 29.4937 20.4562L20.3512 11.3119L19.0256 12.6375L28.1681 21.7819C28.5637 22.1794 28.5637 22.8244 28.1681 23.2219L19.0312 32.3569L20.3569 33.6825L29.4937 24.5475Z" fill="#FFC380"/>
</g>
<defs>
<clipPath id="clip0_33_15">
<rect width="45" height="45" fill="white"/>
</clipPath>
</defs>
</svg>
