<svg width="33" height="34" viewBox="0 0 33 34" fill="none" xmlns="http://www.w3.org/2000/svg">
<path d="M28.1655 10.7285H27.546V3.37402C27.546 2.71702 27.111 2.14252 26.484 1.96402C19.5795 0.0110175 13.4205 0.0110175 6.51598 1.96402C5.88748 2.14252 5.45398 2.71702 5.45398 3.37402V10.7285H4.83448C2.68798 10.7285 0.943481 12.4775 0.943481 14.6285V15.884C0.943481 19.391 3.78748 22.244 7.28548 22.244H10.005C10.47 22.559 10.9635 22.8365 11.4825 23.075C12.261 23.4305 12.663 24.311 12.4395 25.1675L11.433 29.0015H8.86048C7.61848 29.0015 6.61048 30.0095 6.61048 31.2515C6.61048 32.4935 7.61848 33.5015 8.86048 33.5015H24.1395C25.3815 33.5015 26.3895 32.4935 26.3895 31.2515C26.3895 30.0095 25.3815 29.0015 24.1395 29.0015H21.567L20.5605 25.169C20.337 24.311 20.739 23.4305 21.5175 23.075C22.038 22.838 22.5315 22.559 22.995 22.244H25.7145C29.211 22.244 32.0565 19.391 32.0565 15.884V14.6285C32.0565 12.4775 30.312 10.7285 28.1655 10.7285ZM3.94348 15.884V14.6285C3.94348 14.132 4.34398 13.7285 4.83448 13.7285H5.45548C5.46898 15.7175 6.05398 17.621 7.08448 19.2365C5.33548 19.1315 3.94498 17.6675 3.94498 15.8825L3.94348 15.884ZM29.0565 15.884C29.0565 17.669 27.666 19.133 25.917 19.238C26.9475 17.6225 27.5325 15.719 27.546 13.73H28.167C28.6575 13.73 29.058 14.1335 29.058 14.63V15.8855L29.0565 15.884Z" fill="white" fill-opacity="0.5"/>
</svg>
