<svg width="14" height="13" viewBox="0 0 14 13" fill="none" xmlns="http://www.w3.org/2000/svg">
<g clip-path="url(#clip0_2_99)">
<path d="M5.76222 6.79583C6.09097 7.09988 6.53607 7.27059 7.00006 7.27059C7.46405 7.27059 7.90914 7.09988 8.23789 6.79583L13.8723 1.56333C13.7426 1.26215 13.5188 1.00391 13.2297 0.821849C12.9406 0.639787 12.5994 0.542235 12.2501 0.541748H1.75006C1.40073 0.542235 1.05956 0.639787 0.77045 0.821849C0.481339 1.00391 0.257523 1.26215 0.127808 1.56333L5.76222 6.79583Z" fill="url(#paint0_linear_2_99)" fill-opacity="0.5"/>
<path d="M9.06267 7.56175C8.51513 8.06889 7.77335 8.35369 7 8.35369C6.22665 8.35369 5.48487 8.06889 4.93733 7.56175L0 2.97925V12.4584H14V2.97925L9.06267 7.56175Z" fill="url(#paint1_linear_2_99)" fill-opacity="0.5"/>
</g>
<defs>
<linearGradient id="paint0_linear_2_99" x1="7.00006" y1="0.541748" x2="7.00006" y2="7.27059" gradientUnits="userSpaceOnUse">
<stop stop-color="white"/>
<stop offset="1" stop-color="#999999"/>
</linearGradient>
<linearGradient id="paint1_linear_2_99" x1="7" y1="2.97925" x2="7" y2="12.4584" gradientUnits="userSpaceOnUse">
<stop stop-color="white"/>
<stop offset="1" stop-color="#999999"/>
</linearGradient>
<clipPath id="clip0_2_99">
<rect width="14" height="13" fill="white"/>
</clipPath>
</defs>
</svg>
