<svg width="26" height="26" viewBox="0 0 26 26" fill="none" xmlns="http://www.w3.org/2000/svg">
<g clip-path="url(#clip0_302_2002)">
<path d="M1.08333 5.14587H4.04733C4.27986 6.00141 4.78744 6.75667 5.49177 7.29513C6.1961 7.83358 7.05805 8.12532 7.94463 8.12532C8.8312 8.12532 9.69315 7.83358 10.3975 7.29513C11.1018 6.75667 11.6094 6.00141 11.8419 5.14587H24.9167C25.204 5.14587 25.4795 5.03173 25.6827 4.82857C25.8859 4.6254 26 4.34985 26 4.06254C26 3.77522 25.8859 3.49967 25.6827 3.2965C25.4795 3.09334 25.204 2.9792 24.9167 2.9792H11.8419C11.6094 2.12366 11.1018 1.3684 10.3975 0.829944C9.69315 0.291488 8.8312 -0.000244141 7.94463 -0.000244141C7.05805 -0.000244141 6.1961 0.291488 5.49177 0.829944C4.78744 1.3684 4.27986 2.12366 4.04733 2.9792H1.08333C0.796016 2.9792 0.520465 3.09334 0.317301 3.2965C0.114137 3.49967 0 3.77522 0 4.06254C0 4.34985 0.114137 4.6254 0.317301 4.82857C0.520465 5.03173 0.796016 5.14587 1.08333 5.14587ZM7.94408 2.1667C8.31904 2.1667 8.68558 2.27789 8.99735 2.48621C9.30912 2.69453 9.55211 2.99061 9.69561 3.33703C9.8391 3.68345 9.87664 4.06464 9.80349 4.43239C9.73034 4.80015 9.54978 5.13796 9.28464 5.40309C9.0195 5.66823 8.6817 5.84879 8.31394 5.92194C7.94619 5.99509 7.565 5.95755 7.21858 5.81406C6.87216 5.67057 6.57607 5.42757 6.36776 5.1158C6.15944 4.80404 6.04825 4.4375 6.04825 4.06254C6.04882 3.55991 6.24875 3.07803 6.60416 2.72261C6.95957 2.3672 7.44145 2.16728 7.94408 2.1667Z" fill="white"/>
<path d="M24.9167 11.9168H21.9527C21.7205 11.061 21.2132 10.3055 20.5089 9.76683C19.8046 9.22815 18.9426 8.93628 18.0559 8.93628C17.1692 8.93628 16.3072 9.22815 15.603 9.76683C14.8987 10.3055 14.3913 11.061 14.1592 11.9168H1.08333C0.796016 11.9168 0.520465 12.0309 0.317301 12.2341C0.114137 12.4372 0 12.7128 0 13.0001C0 13.2874 0.114137 13.563 0.317301 13.7661C0.520465 13.9693 0.796016 14.0834 1.08333 14.0834H14.1592C14.3913 14.9392 14.8987 15.6947 15.603 16.2334C16.3072 16.7721 17.1692 17.064 18.0559 17.064C18.9426 17.064 19.8046 16.7721 20.5089 16.2334C21.2132 15.6947 21.7205 14.9392 21.9527 14.0834H24.9167C25.204 14.0834 25.4795 13.9693 25.6827 13.7661C25.8859 13.563 26 13.2874 26 13.0001C26 12.7128 25.8859 12.4372 25.6827 12.2341C25.4795 12.0309 25.204 11.9168 24.9167 11.9168ZM18.0559 14.8959C17.681 14.8959 17.3144 14.7848 17.0026 14.5764C16.6909 14.3681 16.4479 14.072 16.3044 13.7256C16.1609 13.3792 16.1234 12.998 16.1965 12.6303C16.2697 12.2625 16.4502 11.9247 16.7154 11.6596C16.9805 11.3944 17.3183 11.2139 17.6861 11.1407C18.0538 11.0676 18.435 11.1051 18.7814 11.2486C19.1278 11.3921 19.4239 11.6351 19.6322 11.9468C19.8406 12.2586 19.9517 12.6252 19.9517 13.0001C19.9512 13.5027 19.7513 13.9846 19.3958 14.34C19.0404 14.6955 18.5585 14.8954 18.0559 14.8959Z" fill="white"/>
<path d="M24.9167 20.8542H11.8419C11.6094 19.9987 11.1018 19.2434 10.3975 18.7049C9.69315 18.1665 8.8312 17.8748 7.94463 17.8748C7.05805 17.8748 6.1961 18.1665 5.49177 18.7049C4.78744 19.2434 4.27986 19.9987 4.04733 20.8542H1.08333C0.796016 20.8542 0.520465 20.9683 0.317301 21.1715C0.114137 21.3747 0 21.6502 0 21.9375C0 22.2249 0.114137 22.5004 0.317301 22.7036C0.520465 22.9067 0.796016 23.0209 1.08333 23.0209H4.04733C4.27986 23.8764 4.78744 24.6317 5.49177 25.1701C6.1961 25.7086 7.05805 26.0003 7.94463 26.0003C8.8312 26.0003 9.69315 25.7086 10.3975 25.1701C11.1018 24.6317 11.6094 23.8764 11.8419 23.0209H24.9167C25.204 23.0209 25.4795 22.9067 25.6827 22.7036C25.8859 22.5004 26 22.2249 26 21.9375C26 21.6502 25.8859 21.3747 25.6827 21.1715C25.4795 20.9683 25.204 20.8542 24.9167 20.8542ZM7.94408 23.8334C7.56912 23.8334 7.20258 23.7222 6.89082 23.5139C6.57905 23.3055 6.33605 23.0095 6.19256 22.663C6.04907 22.3166 6.01153 21.9354 6.08468 21.5677C6.15783 21.1999 6.33839 20.8621 6.60353 20.597C6.86866 20.3318 7.20647 20.1513 7.57422 20.0781C7.94198 20.005 8.32317 20.0425 8.66959 20.186C9.01601 20.3295 9.31209 20.5725 9.52041 20.8843C9.72873 21.196 9.83992 21.5626 9.83992 21.9375C9.83906 22.4401 9.63904 22.9218 9.28369 23.2771C8.92834 23.6325 8.44663 23.8325 7.94408 23.8334Z" fill="white"/>
</g>
<defs>
<clipPath id="clip0_302_2002">
<rect width="26" height="26" fill="white"/>
</clipPath>
</defs>
</svg>
