<svg width="24" height="22" viewBox="0 0 24 22" fill="none" xmlns="http://www.w3.org/2000/svg">
<g clip-path="url(#clip0_42_142)">
<path d="M9.87799 11.5005C10.4416 12.015 11.2046 12.3039 12 12.3039C12.7954 12.3039 13.5584 12.015 14.122 11.5005L23.781 2.64546C23.5586 2.13577 23.1749 1.69875 22.6793 1.39064C22.1837 1.08254 21.5988 0.917449 21 0.916626H2.99999C2.40115 0.917449 1.81629 1.08254 1.32067 1.39064C0.825049 1.69875 0.441363 2.13577 0.218994 2.64546L9.87799 11.5005Z" fill="#FFC380"/>
<path d="M15.536 12.7966C14.5974 13.6549 13.3257 14.1368 12 14.1368C10.6743 14.1368 9.40263 13.6549 8.464 12.7966L0 5.04163V21.0833H24V5.04163L15.536 12.7966Z" fill="#FFC380"/>
</g>
<defs>
<clipPath id="clip0_42_142">
<rect width="24" height="22" fill="white"/>
</clipPath>
</defs>
</svg>
