<svg width="20" height="20" viewBox="0 0 20 20" fill="none" xmlns="http://www.w3.org/2000/svg">
<g clip-path="url(#clip0_2_81)">
<path fill-rule="evenodd" clip-rule="evenodd" d="M0 10C0 4.47717 4.47717 0 10 0C15.5228 0 20 4.47717 20 10C20 15.5228 15.5228 20 10 20C4.47717 20 0 15.5228 0 10ZM10.0005 4.66667C8.55204 4.66667 8.37025 4.673 7.80138 4.69887C7.23358 4.72487 6.84604 4.81479 6.50692 4.94667C6.15613 5.08287 5.85858 5.26512 5.56212 5.56167C5.26546 5.85812 5.08321 6.15567 4.94654 6.50633C4.81433 6.84558 4.72433 7.23325 4.69879 7.80079C4.67333 8.36971 4.66667 8.55158 4.66667 10C4.66667 11.4485 4.67312 11.6297 4.69887 12.1986C4.725 12.7664 4.81487 13.154 4.94667 13.4931C5.083 13.8439 5.26521 14.1414 5.56179 14.4379C5.85812 14.7345 6.15567 14.9172 6.50625 15.0535C6.84558 15.1853 7.23325 15.2752 7.80092 15.3012C8.36983 15.3271 8.5515 15.3335 9.99983 15.3335C11.4484 15.3335 11.6296 15.3271 12.1985 15.3012C12.7663 15.2752 13.1543 15.1853 13.4937 15.0535C13.8443 14.9172 14.1414 14.7345 14.4377 14.4379C14.7344 14.1414 14.9167 13.8439 15.0533 13.4932C15.1845 13.154 15.2745 12.7663 15.3011 12.1987C15.3267 11.6298 15.3333 11.4485 15.3333 10C15.3333 8.55158 15.3267 8.36983 15.3011 7.80092C15.2745 7.23313 15.1845 6.84558 15.0533 6.50646C14.9167 6.15567 14.7344 5.85812 14.4377 5.56167C14.1411 5.265 13.8444 5.08279 13.4933 4.94667C13.1533 4.81479 12.7655 4.72487 12.1977 4.69887C11.6288 4.673 11.4478 4.66667 9.99883 4.66667H10.0005Z" fill="white"/>
<path fill-rule="evenodd" clip-rule="evenodd" d="M9.52204 5.6278C9.66404 5.62759 9.8225 5.6278 10.0005 5.6278C11.4245 5.6278 11.5933 5.63292 12.1556 5.65846C12.6756 5.68226 12.9579 5.76913 13.1459 5.84213C13.3947 5.9388 13.5722 6.05434 13.7587 6.24101C13.9454 6.42767 14.061 6.60546 14.1579 6.85438C14.2309 7.04213 14.3179 7.32438 14.3415 7.84438C14.3671 8.40659 14.3727 8.57551 14.3727 9.99884C14.3727 11.4222 14.3671 11.5911 14.3415 12.1533C14.3177 12.6733 14.2309 12.9555 14.1579 13.1433C14.0612 13.3922 13.9454 13.5694 13.7587 13.756C13.5721 13.9427 13.3949 14.0582 13.1459 14.1549C12.9581 14.2282 12.6756 14.3149 12.1556 14.3387C11.5934 14.3642 11.4245 14.3698 10.0005 14.3698C8.57637 14.3698 8.40758 14.3642 7.84537 14.3387C7.32537 14.3147 7.04313 14.2278 6.85504 14.1548C6.60613 14.0581 6.42833 13.9425 6.24167 13.7559C6.055 13.5692 5.93946 13.3919 5.84258 13.1429C5.76958 12.9551 5.68258 12.6729 5.65892 12.1529C5.63333 11.5906 5.62825 11.4218 5.62825 9.99751C5.62825 8.57326 5.63333 8.40526 5.65892 7.84305C5.68267 7.32305 5.76958 7.0408 5.84258 6.8528C5.93925 6.60392 6.055 6.42613 6.24167 6.23946C6.42833 6.0528 6.60613 5.93726 6.85504 5.84034C7.04304 5.76701 7.32537 5.68034 7.84537 5.65646C8.33737 5.63426 8.52804 5.62759 9.52204 5.62646V5.6278ZM12.8474 6.51334C12.4941 6.51334 12.2074 6.79971 12.2074 7.15313C12.2074 7.50646 12.4941 7.79313 12.8474 7.79313C13.2007 7.79313 13.4874 7.50646 13.4874 7.15313C13.4874 6.7998 13.2007 6.51334 12.8474 6.51334ZM10.0005 7.26113C8.48792 7.26113 7.26158 8.48751 7.26158 10C7.26158 11.5126 8.48792 12.7384 10.0005 12.7384C11.5131 12.7384 12.739 11.5126 12.739 10C12.739 8.48751 11.5131 7.26113 10.0005 7.26113Z" fill="white"/>
<path fill-rule="evenodd" clip-rule="evenodd" d="M10.0005 8.22217C10.9823 8.22217 11.7783 9.01808 11.7783 9.99996C11.7783 10.9818 10.9823 11.7778 10.0005 11.7778C9.01858 11.7778 8.22271 10.9818 8.22271 9.99996C8.22271 9.01808 9.01858 8.22217 10.0005 8.22217Z" fill="white"/>
</g>
<defs>
<clipPath id="clip0_2_81">
<rect width="20" height="20" rx="10" fill="white"/>
</clipPath>
</defs>
</svg>
