<svg width="89" height="43" viewBox="0 0 89 43" fill="none" xmlns="http://www.w3.org/2000/svg">
<path d="M29.7035 17.6508C29.3067 17.9253 28.9226 18.2209 28.5095 18.468C28.1443 18.6865 27.9911 18.9843 28.0106 19.3933C28.0137 19.459 28.0017 19.5267 28.013 19.5906C28.1689 20.4665 28.0207 21.3434 28.012 22.2192C28.008 22.631 27.8943 23.0408 27.8459 23.4533C27.8233 23.6453 27.8212 23.843 27.8385 24.0356C27.8777 24.4714 27.9267 24.9067 27.9872 25.3401C28.0264 25.621 28.1142 25.889 28.2876 26.1231C28.4108 26.0875 28.5083 26.0593 28.6148 26.0286C28.6897 26.263 28.4223 26.2927 28.3633 26.4941C28.4039 26.5534 28.4468 26.6563 28.5227 26.7196C28.806 26.9556 28.9577 27.2633 29.0523 27.6093C29.1217 27.8631 29.2008 28.1143 29.2705 28.3681C29.4213 28.9178 29.5903 29.4637 29.7115 30.02C29.8279 30.5541 29.9427 31.0967 29.9715 31.6402C30.0393 32.9161 30.2245 34.1699 30.5108 35.4135C30.6827 36.1605 30.8108 36.9175 30.9652 37.6686C31.0094 37.8835 30.9319 38.0565 30.8147 38.2205C30.6764 38.414 30.5319 38.6029 30.3469 38.8519C30.2258 38.856 30.0307 38.8698 29.8358 38.868C28.8478 38.8592 27.8598 38.8449 26.8718 38.836C26.6566 38.834 26.4413 38.8463 26.2125 38.8524C25.8371 40.0148 25.3484 41.0882 24.7715 42.1256C24.4779 42.2121 24.1947 42.1704 23.9182 42.1064C23.0567 41.9069 22.1824 41.8612 21.3024 41.8522C18.7775 41.8266 16.2527 41.7937 13.7278 41.7644C13.488 41.7616 13.2481 41.764 12.9696 41.764C12.9878 41.5926 12.9734 41.4575 13.0186 41.3467C13.2505 40.7782 13.4815 40.2084 13.7419 39.6527C19.4766 27.4152 25.215 15.1795 30.953 2.94355C31.3629 2.06954 31.7737 1.19598 32.1877 0.323915C32.2413 0.210921 32.3166 0.108213 32.3823 0C32.644 0.124439 32.7673 0.335251 32.8815 0.546112C32.9856 0.73821 33.0828 0.937658 33.1526 1.14414C33.842 3.18366 34.7488 5.13509 35.5745 7.11902C39.6035 16.7996 43.6466 26.4744 47.6719 36.1565C48.4465 38.0196 49.1638 39.9066 49.9079 41.7824C49.9954 42.0029 50.085 42.2226 50.1136 42.4854C49.9914 42.503 49.909 42.5262 49.8269 42.5251C46.0077 42.4738 42.1886 42.4204 38.3412 42.3668C38.2534 42.2076 38.1536 42.0643 38.0909 41.9063C37.8403 41.2744 37.6028 40.6373 37.3571 40.0035C37.2309 39.6777 37.0974 39.3547 36.9554 39.0011C36.0946 38.9073 35.2399 38.9717 34.4197 38.9022C34.2854 38.6737 34.1831 38.4587 34.0429 38.272C33.8825 38.0583 33.8286 37.8228 33.9098 37.5895C34.1319 36.9509 34.0921 36.2911 34.1203 35.6348C34.1316 35.3727 34.171 35.1096 34.2224 34.8519C34.3427 34.2478 34.4062 33.6415 34.4339 33.0245C34.4654 32.3216 34.5162 31.6252 34.3722 30.9286C34.3417 30.7812 34.3476 30.6195 34.3694 30.4692C34.4909 29.632 34.3671 28.8037 34.285 27.9749C34.1813 26.9271 34.0605 25.881 33.9438 24.8346C33.9146 24.5733 33.8692 24.3138 33.8374 24.0528C33.8085 23.8164 33.7879 23.579 33.7659 23.3639C34.0204 23.1505 34.3033 23.1738 34.5438 23.078C34.8277 22.9649 35.1261 22.8773 35.3904 22.729C35.7365 22.535 35.8412 22.28 35.7381 21.8929C35.6599 21.599 35.5283 21.3175 35.402 21.0388C35.221 20.6395 35.006 20.2551 34.8373 19.851C34.652 19.407 34.5016 18.9484 34.3382 18.4953C34.2791 18.3318 34.2262 18.166 34.1705 18.0012C33.4978 17.6925 32.7376 17.6667 32.0943 17.1822C32.0551 17.1291 31.9975 17.1213 31.9975 17.1213C31.9975 17.1213 31.9669 17.1212 31.9474 17.0781C31.8643 16.9774 31.8008 16.9197 31.7149 16.8353C31.6545 16.7828 31.6165 16.757 31.5632 16.6818C31.5585 16.4949 31.5692 16.3576 31.6056 16.2019C31.6615 16.1507 31.6753 16.112 31.6854 16.0233C31.7075 15.8704 31.744 15.7554 31.721 15.6538C31.6307 15.2534 31.5326 14.8539 31.4129 14.4616C31.3774 14.3453 31.2778 14.2332 31.1796 14.1541C30.5706 13.6642 29.704 14.0003 29.5621 14.778C29.5194 15.0118 29.5045 15.2509 29.4561 15.4833C29.387 15.8153 29.3378 16.1288 29.6849 16.3534C29.7493 16.3951 29.7901 16.4908 29.8172 16.5699C29.924 16.8816 30.0287 17.1959 29.8925 17.5265C29.8065 17.5641 29.755 17.6074 29.7035 17.6508Z" fill="white"/>
<path d="M73.3208 11.7559C78.5236 11.8353 83.6605 11.9137 88.7974 11.9946C88.8356 11.9952 88.8732 12.0291 88.9111 12.0475C89.0281 12.6915 89.0065 13.9918 88.8673 14.5224C88.7596 14.9332 88.54 15.2876 88.2924 15.6249C87.8378 16.2442 87.3713 16.8549 86.9202 17.4768C85.0641 20.0356 83.2144 22.599 81.3566 25.1566C80.918 25.7603 80.4497 26.3424 80.0088 26.9444C79.6718 27.4044 79.3465 27.8738 79.035 28.3514C78.8571 28.6241 78.6929 28.911 78.6334 29.2291C78.7434 29.4184 78.9145 29.3565 79.0562 29.3583C80.9224 29.3808 82.7888 29.3935 84.655 29.4171C85.9723 29.4338 87.2894 29.463 88.6066 29.4881C88.7152 29.4902 88.8237 29.5043 88.923 29.512C88.9441 29.542 88.9574 29.5595 88.9692 29.578C88.9807 29.5961 89.0002 29.6153 89.0001 29.6339C88.9897 31.2804 88.9782 32.9269 88.9644 34.5735C88.9639 34.6347 88.9403 34.6957 88.9223 34.7814C88.8367 34.7986 88.7546 34.8268 88.6716 34.8299C87.1075 34.8877 67.6883 34.5902 66.9857 34.4974C66.9712 34.3981 66.9419 34.2923 66.9425 34.1867C66.9452 33.7037 66.962 33.2208 66.9626 32.7378C66.9632 32.2795 67.1233 31.8932 67.3965 31.525C68.783 29.6565 70.1642 27.7839 71.5307 25.9008C73.4001 23.3246 75.2551 20.738 77.1146 18.1546C77.2511 17.965 77.3739 17.7656 77.5135 17.555C77.2655 17.4195 77.0433 17.4595 76.8323 17.4561C75.3833 17.4332 73.9342 17.4169 72.4852 17.4002C71.2337 17.3857 69.9822 17.3748 68.7307 17.359C68.5157 17.3563 68.301 17.3371 68.0933 17.3259C68.0617 17.2214 68.0268 17.1604 68.0272 17.0996C68.0401 15.3871 68.0559 13.6745 68.0745 11.9621C68.0751 11.901 68.1079 11.8403 68.1224 11.7906C68.1753 11.7639 68.2129 11.7284 68.2503 11.7285C69.9185 11.7354 71.5867 11.7454 73.3208 11.7559Z" fill="white"/>
<path d="M19.0965 11.0844C19.1748 11.1891 19.2143 11.2721 19.2161 11.3559C19.2409 12.4974 19.2725 13.639 19.2748 14.7806C19.2756 15.1727 19.2303 15.5711 19.1518 15.9555C19.0497 16.4561 18.7841 16.6541 18.2764 16.6818C18.1013 16.6913 17.9252 16.6811 17.7496 16.6789C14.6318 16.6386 11.514 16.5978 8.39621 16.5591C8.24446 16.5572 8.09247 16.5739 7.92606 16.5827C7.77126 16.975 7.8603 17.3721 7.84153 17.7584C7.82236 18.1529 7.82937 18.5487 7.82753 18.944C7.8257 19.3358 7.82713 19.7275 7.82713 20.1236C8.05575 20.2591 8.28001 20.2166 8.49088 20.2196C11.0597 20.2563 13.6286 20.2873 16.1975 20.3198C16.5686 20.3245 16.9397 20.3294 17.3363 20.3345C17.3669 20.4661 17.411 20.5674 17.411 20.6688C17.4116 21.8765 17.4113 23.0842 17.3979 24.2918C17.3942 24.6202 17.3622 24.9505 17.3144 25.2756C17.2393 25.7861 17.0431 25.9578 16.5391 25.9963C16.4298 26.0046 16.3197 26.0044 16.21 26.0035C14.6071 25.9915 13.0041 25.9914 11.4016 25.9609C10.5463 25.9446 9.6914 25.8854 8.83778 25.8252C8.49271 25.8008 8.15151 25.7218 7.77679 25.6627C7.67407 26.2346 7.72733 26.7798 7.71158 27.3203C7.69559 27.8689 7.69949 28.4181 7.69447 28.9671C7.68925 29.538 7.68438 30.1088 7.67823 30.6797C7.67231 31.2287 7.66827 31.7776 7.65727 32.3265C7.64632 32.8725 7.62774 33.4183 7.61344 33.931C7.5503 33.9742 7.53379 33.9874 7.51559 33.9974C7.49645 34.008 7.47561 34.0236 7.45563 34.0235C5.06268 34.0038 2.66973 33.9831 0.276805 33.9604C0.215388 33.9598 0.154184 33.9363 0.0687796 33.9184C0.0518258 33.8333 0.0202224 33.7504 0.0210106 33.6678C0.0932532 26.0745 0.203413 18.4818 0.317404 10.8503C0.525076 10.8338 0.693174 10.808 0.861096 10.8091C2.11268 10.8175 3.36431 10.8261 4.61579 10.844C9.20451 10.9098 13.7932 10.979 18.3819 11.0473C18.6014 11.0506 18.8208 11.0577 19.0965 11.0844Z" fill="white"/>
<path d="M52.1875 15.7254C52.4501 16.1613 52.6877 16.5562 52.9221 16.9529C53.3138 17.6156 53.6381 18.3089 53.8602 19.0835C54.0276 19.0991 54.1951 19.1147 54.3813 19.1321C55.6939 16.5272 57.3029 14.12 58.7621 11.5801C61.3985 11.6136 64.0313 11.606 66.6633 11.6914C66.722 11.6933 66.7794 11.7376 66.8677 11.7749C66.7452 11.9739 66.6354 12.1609 66.5176 12.3426C64.572 15.3447 62.6272 18.3472 60.6774 21.3465C60.3545 21.8431 60.0084 22.3245 59.6734 22.8132C59.3632 23.2658 59.0522 23.7179 58.7436 24.1715C58.004 25.2587 57.6617 26.4647 57.6801 27.7749C57.6948 28.8285 57.7198 29.882 57.7366 30.9356C57.7479 31.638 57.767 32.3408 57.7545 33.0429C57.7483 33.3916 57.7006 33.7434 57.6326 34.0861C57.5389 34.5581 57.2474 34.8709 56.7654 34.9667C56.5089 35.0176 56.2452 35.0605 55.985 35.0594C55.2388 35.0562 54.4925 35.0331 53.7466 35.0096C52.9348 34.9841 52.1234 34.949 51.3118 34.9192C51.1802 34.9144 51.0481 34.9203 50.9167 34.9132C50.3726 34.8838 50.0937 34.674 50.0047 34.1482C49.9431 33.7838 49.9277 33.4057 49.941 33.0355C50.0016 31.3463 50.0809 29.6578 50.1503 27.9689C50.1602 27.7278 50.1508 27.486 50.1529 27.2445C50.1625 26.1818 49.8581 25.2115 49.2921 24.3184C47.9765 22.2422 46.6593 20.1669 45.3443 18.0903C44.2876 16.4216 43.229 14.7542 42.1809 13.0802C41.9134 12.653 41.6786 12.205 41.4381 11.7615C41.3795 11.6534 41.3575 11.5254 41.3016 11.3542C44.2255 11.3275 47.0916 11.4564 49.9635 11.4578C50.0283 11.6406 50.0743 11.7859 50.1308 11.9271C50.2285 12.171 50.3105 12.4247 50.4379 12.6526C51.0047 13.6677 51.5853 14.6751 52.1875 15.7254Z" fill="white"/>
<path d="M32.2914 36.5018C32.2433 35.823 32.0402 35.1762 31.8953 34.5167C31.8065 34.1121 31.7963 33.6902 31.7517 33.2759C31.6744 32.5565 31.587 31.8379 31.5234 31.1172C31.4361 30.1291 31.583 29.1552 31.7275 28.1096C31.8146 28.2233 31.8875 28.28 31.9085 28.3518C32.1178 29.0672 32.3308 29.7818 32.5177 30.5032C32.6549 31.0326 32.7671 31.5694 32.865 32.1076C32.9035 32.3197 32.8787 32.5446 32.8729 32.7635C32.854 33.4648 32.8306 34.1659 32.8087 34.8671C32.8066 34.9329 32.8211 35.006 32.7975 35.0632C32.6024 35.5343 32.64 36.0527 32.4477 36.5816C32.4019 36.6302 32.3457 36.6336 32.3457 36.6336C32.3457 36.6336 32.3394 36.6342 32.3455 36.6069C32.3465 36.5421 32.3264 36.5162 32.2914 36.5018Z" fill="white"/>
<path d="M78.8203 38.3353C78.9562 38.3246 79.0438 38.3119 79.1305 38.3168C79.7873 38.354 80.1807 38.6412 80.3846 39.275C80.5607 39.8222 80.6147 40.3877 80.4931 40.9558C80.4387 41.2098 80.3821 41.4727 80.268 41.7026C79.9984 42.2457 79.5398 42.4894 78.9303 42.4518C78.3627 42.4168 77.9888 42.1121 77.8018 41.5988C77.5157 40.8135 77.5219 40.012 77.7991 39.2256C77.9601 38.7688 78.2786 38.4504 78.8203 38.3353ZM78.5584 41.0408C78.2944 41.2961 78.2719 41.3732 78.4005 41.5811C78.7402 42.13 79.4046 42.1354 79.736 41.5849C79.8138 41.4558 79.8748 41.3069 79.9025 41.1595C79.951 40.9018 79.9774 40.6387 79.9923 40.3767C79.9975 40.2845 79.9419 40.1888 79.8995 40.0454C79.4452 40.3827 79.041 40.6827 78.5584 41.0408ZM79.7254 39.1578C79.6147 39.0562 79.5182 38.9288 79.3904 38.8581C79.0978 38.6964 78.7897 38.7546 78.5528 38.9882C78.3591 39.1791 78.272 39.4259 78.2126 39.6819C78.1302 40.0371 78.1508 40.2989 78.2836 40.6415C78.7855 40.2866 79.2762 39.9337 79.7436 39.5491C79.8426 39.4676 79.8103 39.3533 79.7254 39.1578Z" fill="white"/>
<path d="M53.5042 42.3647C53.3104 42.1739 53.3104 42.1739 53.3308 41.8594C53.4326 41.8665 53.5348 41.8682 53.6354 41.8818C54.0492 41.9375 54.4626 41.9891 54.8803 41.9197C55.1335 41.8777 55.344 41.7799 55.4156 41.5064C55.4855 41.2394 55.3888 41.0184 55.1028 40.8535C54.914 40.7447 54.7047 40.6722 54.5074 40.5774C54.2707 40.4637 54.0235 40.3645 53.8046 40.2224C53.1245 39.7812 53.2662 38.8777 53.8792 38.5349C54.0118 38.4608 54.1564 38.3899 54.3037 38.3637C54.7819 38.2784 55.2597 38.282 55.7547 38.4369C55.7633 38.572 55.7712 38.6971 55.7786 38.8143C55.7161 38.8402 55.6751 38.8737 55.6379 38.8698C55.442 38.8496 55.2474 38.8163 55.0516 38.7944C54.7626 38.7621 54.4789 38.7929 54.2185 38.926C53.9156 39.0807 53.8521 39.4674 54.0989 39.6998C54.2236 39.8172 54.3821 39.9049 54.537 39.9825C54.7521 40.0904 54.9829 40.1669 55.1983 40.2744C55.3736 40.3618 55.5549 40.4533 55.7007 40.5806C56.1898 41.0077 56.1627 41.7239 55.6512 42.1265C55.384 42.3368 55.0694 42.4433 54.7337 42.4419C54.3404 42.4402 53.9472 42.4034 53.5042 42.3647Z" fill="white"/>
<path d="M76.0298 40.0489C76.0871 39.8757 76.1367 39.749 76.1441 39.6199C76.1815 38.9662 75.7272 38.6309 75.122 38.8677C74.9437 38.9375 74.7803 39.045 74.592 39.1448C74.5106 39.0528 74.4412 38.9744 74.3564 38.8787C74.4916 38.6088 74.7266 38.4919 74.9668 38.401C75.3045 38.2732 75.6606 38.2731 76.0016 38.3779C76.5911 38.5591 76.9145 39.2412 76.6891 39.8833C76.5902 40.165 76.4107 40.4296 76.2222 40.6655C76.0044 40.9381 75.7362 41.1703 75.4902 41.4204C75.3861 41.5263 75.2754 41.628 75.1938 41.7988C75.4013 41.9253 75.5969 41.8774 75.7794 41.886C75.9545 41.8942 76.1303 41.8879 76.3057 41.8879C76.5012 41.888 76.6967 41.8879 76.9318 41.8879C76.9404 42.0679 76.947 42.2068 76.9534 42.3404C76.4336 42.4385 75.0334 42.4476 74.3566 42.3613C74.2369 42.1516 74.2683 41.9524 74.4395 41.7774C74.7462 41.4639 75.0676 41.1644 75.3677 40.8448C75.5917 40.6062 75.7919 40.3453 76.0298 40.0489Z" fill="white"/>
<path d="M69.1488 42.4435C68.8784 42.4448 68.6575 42.4619 68.4417 42.4366C67.8927 42.3722 67.5079 42.0885 67.3449 41.5442C67.1887 41.0225 67.1896 40.5009 67.4385 40.011C67.8055 39.2885 68.4574 39.1136 69.158 39.3218C69.5329 39.4332 69.7896 39.702 69.9086 40.0872C69.9931 40.361 70.0425 40.6363 69.9847 40.9576C69.645 41.0716 69.2962 41.0048 68.9559 41.0199C68.6104 41.0353 68.2617 40.9968 67.9264 41.0493C67.8543 41.5015 67.9826 41.7546 68.3419 41.9027C68.6122 42.014 68.8946 42.0262 69.181 41.9898C69.3724 41.9654 69.5636 41.9398 69.7492 41.9155C69.8314 42.2417 69.8201 42.3083 69.6502 42.3579C69.5047 42.4004 69.3507 42.4139 69.1488 42.4435ZM69.2866 40.0098C69.0461 39.6953 68.7272 39.5921 68.3656 39.7344C68.0102 39.8741 67.8598 40.1681 67.8507 40.5708C68.3808 40.5708 68.873 40.5708 69.4096 40.5708C69.3849 40.3926 69.365 40.2486 69.2866 40.0098Z" fill="white"/>
<path d="M62.0827 39.7903C61.7432 39.6461 61.5208 39.7811 61.318 39.9602C61.1012 40.1518 60.9269 40.3591 60.9508 40.6883C60.976 41.0365 60.9561 41.388 60.9559 41.738C60.9559 41.933 60.9559 42.128 60.9559 42.359C60.7774 42.3774 60.6361 42.392 60.5128 42.4047C60.3697 42.214 60.3549 40.0063 60.4746 39.3113C60.5764 39.3046 60.6827 39.2974 60.8135 39.2887C60.8728 39.4035 60.9292 39.5128 60.9954 39.6411C61.1428 39.547 61.2839 39.4465 61.4345 39.3631C61.7207 39.2046 62.0278 39.2185 62.3265 39.3069C62.5433 39.3711 62.7069 39.5235 62.7903 39.7408C62.8368 39.8623 62.8925 39.9897 62.8974 40.1162C62.9259 40.8559 62.9406 41.596 62.8912 42.3126C62.7257 42.4431 62.5867 42.4374 62.4055 42.3357C62.3947 42.2111 62.3723 42.0631 62.3707 41.9149C62.3657 41.4336 62.368 40.9522 62.3681 40.4709C62.3682 40.2249 62.3435 39.9882 62.0827 39.7903Z" fill="white"/>
<path d="M81.9287 38.6463C82.108 38.5529 82.2421 38.4789 82.3805 38.4139C82.5656 38.3268 82.7541 38.3038 82.9887 38.4326C82.9887 39.544 82.9887 40.6777 82.9887 41.8505C83.2847 41.8796 83.5383 41.9046 83.7879 41.9291C83.9154 42.0687 83.9026 42.2061 83.8172 42.3481C83.2898 42.4388 81.9403 42.4383 81.3885 42.342C81.3823 42.226 81.3759 42.1032 81.3669 41.9322C81.6907 41.9119 81.99 41.8932 82.3194 41.8725C82.3441 41.7727 82.3895 41.6725 82.3904 41.572C82.3965 40.8284 82.3949 40.0847 82.3925 39.3411C82.3922 39.2595 82.3718 39.178 82.3568 39.0676C82.0062 39.0773 81.7949 39.354 81.451 39.4122C81.3911 39.3068 81.323 39.1871 81.2372 39.0361C81.4715 38.9036 81.6785 38.7867 81.9287 38.6463Z" fill="white"/>
<path d="M15.4003 8.13832C15.3288 8.06265 15.2818 8.02961 15.1847 7.96128C15.1847 8.49419 15.1861 8.97469 15.1836 9.45517C15.1831 9.56383 15.1992 9.6888 15.1517 9.7758C15.1147 9.84379 14.9911 9.86462 14.913 9.90298C14.8612 9.83111 14.8164 9.79794 14.816 9.76418C14.8053 8.97608 14.7981 8.18793 14.7944 7.39976C14.794 7.29454 14.8165 7.18921 14.8327 7.04616C14.978 7.03955 15.1022 7.0339 15.2517 7.0271C15.6502 7.59937 15.8173 8.29296 16.1837 8.84845C16.3612 8.85841 16.3615 8.75493 16.3629 8.67806C16.3712 8.24004 16.3694 7.80185 16.3763 7.36379C16.3777 7.27799 16.3941 7.18989 16.4205 7.10833C16.4305 7.07759 16.4897 7.04222 16.5241 7.04454C16.5844 7.04861 16.6703 7.06296 16.696 7.10398C16.7391 7.17295 16.7612 7.26612 16.7614 7.34919C16.7636 8.13777 16.7599 8.92636 16.7546 9.71493C16.7543 9.75393 16.7234 9.79272 16.6901 9.8705C16.5645 9.87884 16.4199 9.88844 16.2388 9.90047C15.9351 9.33618 15.6965 8.75025 15.4003 8.13832Z" fill="white"/>
<path d="M86.5984 39.3325C86.6624 39.1704 86.7048 39.0547 86.766 38.888C86.0356 38.8497 85.3613 38.8972 84.6785 38.8555C84.6785 38.6696 84.6785 38.5454 84.6785 38.4258C85.1755 38.3282 86.6259 38.3152 87.3303 38.4001C87.4862 38.6528 87.3795 38.8947 87.2675 39.1303C86.8909 39.9229 86.5099 40.7133 86.1293 41.5039C85.9875 41.7985 85.8422 42.0914 85.702 42.3779C85.5019 42.3779 85.3382 42.3779 85.1779 42.3779C85.1779 42.2959 85.163 42.2454 85.1801 42.2106C85.6436 41.2657 86.1104 40.3225 86.5984 39.3325Z" fill="white"/>
<path d="M65.9312 39.2851C66.3165 39.4561 66.3165 39.4561 66.2535 39.8444C66.065 39.8097 65.8774 39.7656 65.6872 39.7417C65.0167 39.6578 64.5356 40.0529 64.4838 40.725C64.4771 40.812 64.4773 40.9 64.4816 40.9871C64.5137 41.6381 64.8855 41.9897 65.5393 41.9662C65.7747 41.9577 66.0085 41.9053 66.2404 41.8732C66.3215 42.2344 66.3102 42.2897 66.1064 42.3506C65.6562 42.4851 65.204 42.4962 64.7548 42.3392C64.4522 42.2334 64.2115 42.0449 64.08 41.7533C63.8029 41.1386 63.7955 40.5185 64.1522 39.9334C64.4062 39.5168 64.8012 39.2914 65.2929 39.2635C65.4885 39.2525 65.6857 39.2717 65.9312 39.2851Z" fill="white"/>
<path d="M57.9864 41.3736C57.9865 40.8306 57.9865 40.3521 57.9865 39.8886C57.7236 39.6847 57.4445 39.8034 57.1495 39.7235C57.1328 39.6134 57.1125 39.4795 57.0968 39.3756C57.2426 39.2441 57.9302 39.2485 58.5254 39.3562C58.5883 39.7716 58.5436 40.2055 58.5575 40.6358C58.5708 41.0466 58.5277 41.4602 58.5893 41.9002C58.8688 41.9207 59.1228 41.9393 59.3433 41.9555C59.4934 42.0837 59.4875 42.2044 59.4305 42.3333C58.9904 42.4442 57.7809 42.4622 57.0094 42.3643C57.0094 42.2492 57.0094 42.1297 57.0094 41.9685C57.3126 41.9448 57.6083 41.9217 57.9451 41.8954C57.9601 41.7286 57.9732 41.5834 57.9864 41.3736Z" fill="white"/>
<path d="M13.6602 8.25492C13.7797 8.25772 13.8545 8.24145 13.9084 8.26783C13.9764 8.30108 14.0273 8.36918 14.0856 8.42224C14.0284 8.47559 13.9752 8.56884 13.9132 8.57508C13.6964 8.59695 13.4765 8.5855 13.258 8.59372C13.1725 8.59692 13.0876 8.61867 12.9978 8.63269C12.8906 8.91879 12.9319 9.19483 12.9539 9.44806C13.151 9.62944 13.3571 9.5519 13.5449 9.57096C13.718 9.58854 13.8926 9.59229 14.0652 9.61316C14.0927 9.61649 14.1367 9.68161 14.1319 9.71159C14.1227 9.76947 14.0869 9.82438 14.0557 9.87661C14.0478 9.88979 14.0153 9.89168 13.9939 9.89281C13.5176 9.91786 13.0422 9.91732 12.578 9.88839C12.4866 9.26291 12.4903 7.63538 12.5763 7.10724C13.0491 6.98656 13.5861 6.9828 14.1022 7.09665C14.1696 7.25105 14.1286 7.36108 13.9539 7.36769C13.6501 7.37916 13.3455 7.37088 13.0419 7.37088C12.8742 7.64814 12.9426 7.90131 12.9558 8.15233C13.1713 8.31114 13.3968 8.23387 13.6602 8.25492Z" fill="white"/>
<path d="M7.40418 9.06363C7.40417 8.37012 7.40417 7.73771 7.40417 7.11761C7.73374 7.03481 7.7978 7.06021 7.80802 7.26966C7.82277 7.57212 7.82516 7.8752 7.8337 8.21257C8.23106 8.27057 8.58781 8.2969 8.97691 8.18846C8.98744 7.84967 8.98931 7.52431 9.01524 7.20089C9.01989 7.14291 9.12158 7.05364 9.18276 7.04995C9.24769 7.04602 9.31924 7.12478 9.3842 7.17246C9.39642 7.18143 9.39376 7.21404 9.3938 7.23574C9.39497 8.04539 9.39908 8.85507 9.39398 9.66468C9.39271 9.86755 9.2649 9.92082 9.06146 9.86248C8.90461 9.4816 9.08148 9.05035 8.93497 8.62454C8.5925 8.56339 8.25222 8.58293 7.88468 8.60992C7.73163 9.01899 7.89089 9.44812 7.76416 9.84808C7.69579 9.86222 7.63361 9.88413 7.57125 9.88464C7.53275 9.88496 7.49399 9.85268 7.41416 9.81622C7.41102 9.5988 7.4076 9.36176 7.40418 9.06363Z" fill="white"/>
<path d="M4.4238 9.04818C4.52625 9.33973 4.61858 9.58099 4.6536 9.86672C4.52236 9.86672 4.41896 9.86672 4.29252 9.86672C4.21261 9.6932 4.13247 9.51918 4.04373 9.32648C3.67889 9.23874 3.31513 9.26274 2.9249 9.31215C2.85325 9.46993 2.79044 9.62979 2.70962 9.77996C2.6335 9.92141 2.5084 9.9248 2.37463 9.86075C2.41167 9.39063 2.89029 7.87043 3.2462 7.09206C3.28455 7.07287 3.32271 7.03754 3.36132 7.03705C3.73305 7.03223 3.77112 7.04653 3.86234 7.31678C4.0509 7.87543 4.22811 8.43792 4.4238 9.04818ZM3.85575 8.5563C3.72861 8.24821 3.69886 7.90029 3.473 7.5483C3.26341 7.92748 3.2056 8.28555 3.09336 8.62156C3.06877 8.69519 3.08977 8.78405 3.08977 8.91373C3.32749 8.91373 3.54098 8.92886 3.75093 8.9081C3.87841 8.8955 3.90372 8.77844 3.85575 8.5563Z" fill="white"/>
<path d="M10.3626 9.19033C10.3593 9.39856 10.3588 9.55166 10.3515 9.70444C10.3495 9.74625 10.3272 9.7871 10.3029 9.86424C10.2181 9.87072 10.1194 9.87826 10.0163 9.88613C9.98825 9.79829 9.95261 9.73804 9.95222 9.67757C9.94749 8.93384 9.94745 8.19009 9.94766 7.44634C9.94769 7.35907 9.93353 7.26089 9.96821 7.18781C9.99892 7.12307 10.0869 7.05037 10.1526 7.04749C10.2149 7.04475 10.3214 7.11704 10.3372 7.17555C10.3704 7.2988 10.3551 7.43472 10.363 7.56524C10.3733 7.73609 10.3866 7.90674 10.4035 8.14628C10.5379 8.04681 10.6336 7.99997 10.696 7.92528C10.8923 7.69049 11.0736 7.44332 11.2654 7.20471C11.3822 7.05938 11.5211 6.96665 11.757 7.08882C11.5326 7.58953 11.0695 7.91426 10.8037 8.40034C11.0611 8.91438 11.53 9.29854 11.8255 9.82311C11.6168 9.93529 11.4585 9.93272 11.3306 9.77795C11.1636 9.57583 11.0154 9.35807 10.846 9.15805C10.738 9.03047 10.6751 8.85096 10.4912 8.80108C10.3281 8.8742 10.3799 9.01737 10.3626 9.19033Z" fill="white"/>
<path d="M5.84061 8.18838C6.10535 8.31162 6.33167 8.40028 6.53786 8.52281C6.77838 8.66575 6.92285 8.88552 6.89825 9.17874C6.87195 9.49219 6.70021 9.71637 6.41066 9.8254C5.96418 9.99352 5.50427 9.96396 5.0536 9.84222C4.99637 9.82676 4.97654 9.6729 4.91296 9.51936C5.19484 9.55049 5.40508 9.57989 5.61634 9.59534C5.83617 9.6114 6.05518 9.60848 6.25691 9.49424C6.48749 9.36364 6.53468 9.04612 6.32625 8.88628C6.18941 8.78134 6.02161 8.71611 5.86589 8.63661C5.67114 8.53717 5.45711 8.46545 5.28227 8.33905C4.87935 8.04775 4.87868 7.50323 5.2797 7.22172C5.68582 6.93662 6.1413 6.92506 6.59839 7.07502C6.65626 7.094 6.67254 7.23975 6.72513 7.36846C6.53657 7.36846 6.40916 7.36619 6.28186 7.36901C6.107 7.37289 5.92857 7.36031 5.7582 7.39102C5.41807 7.45232 5.32907 7.76692 5.57308 8.02743C5.63089 8.08915 5.71908 8.12241 5.84061 8.18838Z" fill="white"/>
<path d="M18.0005 8.81508C17.9959 8.31978 17.9912 7.88648 17.9861 7.41473C17.7533 7.39904 17.5609 7.39813 17.3736 7.36691C17.308 7.35597 17.2125 7.27413 17.2076 7.218C17.2026 7.15951 17.2893 7.03917 17.3378 7.03817C17.9276 7.02598 18.5179 7.02631 19.1077 7.0394C19.1579 7.04051 19.2465 7.15915 19.2423 7.21784C19.2384 7.27312 19.1411 7.35478 19.0748 7.36613C18.9039 7.39536 18.7275 7.39212 18.5169 7.40389C18.4883 7.5215 18.4362 7.64126 18.434 7.76194C18.4243 8.28685 18.4317 8.81205 18.4274 9.3371C18.4261 9.5088 18.4083 9.68036 18.397 9.87101C18.2688 9.87101 18.169 9.87101 18.0457 9.87101C17.9616 9.52769 18.0172 9.19983 18.0005 8.81508Z" fill="white"/>
<path d="M0.743957 7.01538C1.15335 7.0175 1.50392 7.01613 1.8543 7.02355C1.98849 7.02639 1.98962 7.03761 2.03498 7.33694C1.80188 7.36197 1.56948 7.38692 1.29431 7.41648C1.19279 7.8084 1.25684 8.2213 1.24553 8.62746C1.2346 9.01984 1.24317 9.41275 1.24317 9.84489C1.11631 9.86614 1.02113 9.88208 0.943583 9.89508C0.895307 9.83271 0.849372 9.80099 0.848624 9.76825C0.837115 9.26502 0.830307 8.76166 0.824991 8.25831C0.822224 7.99617 0.824504 7.73397 0.824504 7.43179C0.56614 7.40484 0.331256 7.38745 0.0996732 7.34978C0.0569952 7.34284 -0.000320335 7.25362 1.3481e-06 7.2027C0.000323064 7.15105 0.0583504 7.06072 0.100272 7.05504C0.293451 7.02889 0.489823 7.02638 0.743957 7.01538Z" fill="white"/>
<path d="M31.6393 18.1982C31.5099 19.0063 31.3806 19.8143 31.2512 20.6224C30.9484 19.9588 30.9612 19.2579 30.9456 18.5103C31.2185 18.3655 31.4289 18.2819 31.6393 18.1982Z" fill="white"/>
<path d="M31.6529 18.154C31.4289 18.2819 31.2185 18.3655 30.9595 18.4516C30.929 18.3277 30.9573 18.1989 30.7911 18.0808C30.7168 17.8798 30.8221 17.7723 30.9466 17.6762C31.2063 17.4759 31.4619 17.2721 31.6537 16.9218C31.6948 16.8742 31.7374 16.8621 31.7374 16.8621C31.8009 16.9197 31.8644 16.9773 31.9397 17.0649C31.9032 17.1592 31.8269 17.2175 31.8113 17.289C31.7523 17.5603 31.713 17.8358 31.6529 18.154Z" fill="white"/>
<path d="M29.8925 17.5266C30.2401 17.5416 30.4068 17.7695 30.6062 18.0162C30.4981 18.2242 30.3503 18.3849 30.421 18.6652C30.2387 18.6485 30.0941 18.5738 29.9595 18.7281C29.9047 18.3874 29.8499 18.0467 29.7493 17.6784C29.755 17.6075 29.8064 17.5642 29.8925 17.5266Z" fill="white"/>
<path d="M58.3303 38.0335C58.5233 38.1291 58.5914 38.2575 58.5916 38.4219C58.592 38.6326 58.4562 38.7944 58.2506 38.8368C58.0942 38.8692 57.9001 38.773 57.8141 38.6206C57.7294 38.4703 57.7508 38.2686 57.8773 38.1399C57.9889 38.0263 58.1226 37.962 58.3303 38.0335Z" fill="white"/>
<path d="M29.3012 24.3677C29.2598 24.4059 29.2037 24.4032 29.2037 24.4002C29.2009 23.7523 29.2018 23.1044 29.2049 22.4565C29.2049 22.444 29.2311 22.4315 29.2486 22.4158C29.4391 22.4623 29.4334 22.6285 29.444 22.7748C29.4819 23.2985 29.4312 23.8158 29.3012 24.3677Z" fill="white"/>
<path d="M33.1595 22.6475C33.1372 22.805 33.1076 22.9254 32.9627 22.893C32.8937 22.8776 32.7804 22.7828 32.7883 22.7455C32.8545 22.4339 32.7345 22.1493 32.6541 21.8915C32.7666 21.7661 32.8408 21.8072 32.9022 21.8754C33.0871 22.0811 33.1499 22.3325 33.1595 22.6475Z" fill="white"/>
<path d="M29.9558 18.7836C30.0941 18.5737 30.2387 18.6485 30.4215 18.7181C30.4883 19.152 30.5064 19.5771 30.4275 20.0845C30.307 19.9679 30.215 19.917 30.1826 19.8408C30.0473 19.522 29.9447 19.1922 29.9558 18.7836Z" fill="white"/>
<path d="M32.3463 36.6905C32.3457 36.6338 32.4019 36.6303 32.4301 36.6312C32.4833 37.1679 32.5085 37.7037 32.5125 38.3067C32.4544 38.3772 32.4188 38.3716 32.3846 38.3573C32.3278 37.9931 32.3035 37.6307 32.364 37.2615C32.3912 37.0955 32.3545 36.919 32.3463 36.6905Z" fill="white"/>
<path d="M32.3727 38.3992C32.4187 38.3717 32.4544 38.3772 32.5177 38.3672C32.6611 38.5043 32.8754 38.5817 32.8696 38.8573C32.5925 38.9369 32.3261 38.9212 32.0466 38.8628C32.1653 38.7036 32.2631 38.5723 32.3727 38.3992Z" fill="white"/>
<path d="M30.2539 20.1375C30.2254 19.9514 30.2127 19.8195 30.4164 19.8262C30.5693 20.0474 30.548 20.2863 30.4954 20.6119C30.3326 20.4626 30.3367 20.3061 30.2539 20.1375Z" fill="white"/>
<path d="M33.8935 21.2603C33.9791 21.3474 34.0313 21.4154 34.0453 21.4905C34.0515 21.5237 33.9847 21.5986 33.9432 21.6052C33.897 21.6126 33.7982 21.564 33.7981 21.5395C33.7977 21.441 33.8266 21.3425 33.8935 21.2603Z" fill="white"/>
<path d="M32.2852 36.5277C32.3263 36.5164 32.3464 36.5424 32.348 36.6051C32.3065 36.6183 32.2848 36.5926 32.2852 36.5277Z" fill="white"/>
<path d="M32.0007 17.1381C31.9974 17.1213 32.055 17.1292 32.0603 17.1437C32.0655 17.1582 32.034 17.1717 32.034 17.1717C32.034 17.1717 32.0041 17.155 32.0007 17.1381Z" fill="white"/>
<path d="M31.7148 16.8352C31.7373 16.862 31.6947 16.8742 31.6727 16.8769C31.6314 16.8585 31.6121 16.8372 31.5857 16.7736C31.6165 16.7569 31.6544 16.7827 31.7148 16.8352Z" fill="white"/>
</svg>
