<svg width="15" height="15" viewBox="0 0 15 15" fill="none" xmlns="http://www.w3.org/2000/svg">
<g clip-path="url(#clip0_48_1289)">
<path d="M15 14.1162L11.0862 10.2025C12.1029 8.95911 12.6027 7.37254 12.4824 5.77096C12.3621 4.16938 11.6307 2.67532 10.4397 1.59781C9.24871 0.520305 7.68911 -0.0582065 6.08351 -0.0180617C4.47792 0.0220832 2.94918 0.677813 1.81349 1.81349C0.677813 2.94918 0.0220832 4.47792 -0.0180617 6.08351C-0.0582065 7.68911 0.520305 9.24871 1.59781 10.4397C2.67532 11.6307 4.16938 12.3621 5.77096 12.4824C7.37254 12.6027 8.95911 12.1029 10.2025 11.0862L14.1162 15L15 14.1162ZM6.24999 11.25C5.26108 11.25 4.29438 10.9567 3.47213 10.4073C2.64989 9.85793 2.00903 9.07703 1.63059 8.1634C1.25215 7.24977 1.15313 6.24444 1.34606 5.27453C1.53899 4.30463 2.01519 3.41371 2.71445 2.71445C3.41371 2.01519 4.30463 1.53899 5.27453 1.34606C6.24444 1.15313 7.24977 1.25215 8.1634 1.63059C9.07703 2.00903 9.85793 2.64989 10.4073 3.47213C10.9567 4.29438 11.25 5.26108 11.25 6.24999C11.2485 7.57561 10.7212 8.84652 9.78388 9.78388C8.84652 10.7212 7.57561 11.2485 6.24999 11.25Z" fill="white" fill-opacity="0.5"/>
</g>
<defs>
<clipPath id="clip0_48_1289">
<rect width="15" height="15" fill="white"/>
</clipPath>
</defs>
</svg>
