<svg width="31" height="31" viewBox="0 0 31 31" fill="none" xmlns="http://www.w3.org/2000/svg">
<g clip-path="url(#clip0_40_106)">
<path d="M25.119 8.928C22.8832 6.86779 19.9873 5.51412 16.7891 5.22479L19.375 0H29.5365L25.119 8.928ZM14.2032 5.22608L11.625 0H1.32784L5.77892 9.02229C8.02642 6.91042 10.9585 5.52187 14.2032 5.22608ZM27.125 19.375C27.125 25.7855 21.9093 31 15.5 31C9.09075 31 3.875 25.7855 3.875 19.375C3.875 12.9645 9.09075 7.75 15.5 7.75C21.9093 7.75 27.125 12.9645 27.125 19.375ZM21.9583 17.4375H17.3316L16.0451 12.8805H14.9833L13.6955 17.4375H9.04296V18.4024L12.533 20.4406L11.1458 24.5417L11.935 25.1358L15.5168 22.3652L19.0844 25.1242L19.9046 24.552L18.414 20.5026L21.9583 18.3972V17.4388V17.4375Z" fill="white" fill-opacity="0.5"/>
</g>
<defs>
<clipPath id="clip0_40_106">
<rect width="31" height="31" fill="white"/>
</clipPath>
</defs>
</svg>
