<svg width="20" height="20" viewBox="0 0 20 20" fill="none" xmlns="http://www.w3.org/2000/svg">
<path d="M10 0C4.47714 0 0 4.47714 0 10C0 15.5229 4.47714 20 10 20C15.5229 20 20 15.5229 20 10C20 4.47714 15.5229 0 10 0ZM14.6352 6.80081C14.4847 8.38206 13.8335 12.2193 13.5021 13.9903C13.3619 14.7397 13.0859 14.991 12.8187 15.0155C12.2381 15.069 11.797 14.6318 11.2346 14.2631C10.3544 13.6861 9.85722 13.327 9.00286 12.764C8.01556 12.1134 8.65561 11.7559 9.21827 11.1712C9.36552 11.0183 11.9242 8.69101 11.9737 8.47988C11.9799 8.45347 11.9858 8.35488 11.9272 8.30311C11.8685 8.25133 11.7824 8.26887 11.7201 8.28294C11.6319 8.303 10.2258 9.23232 7.50206 11.0709C7.103 11.345 6.74152 11.4785 6.41762 11.4715C6.06056 11.4638 5.37375 11.2696 4.86315 11.1036C4.2369 10.9001 3.73915 10.7925 3.7825 10.4467C3.80508 10.2666 4.05306 10.0825 4.52645 9.89431C7.44167 8.62421 9.38559 7.78684 10.3582 7.38222C13.1353 6.2271 13.7124 6.02645 14.0885 6.01976C14.1712 6.01839 14.3562 6.03887 14.476 6.13609C14.5557 6.20534 14.6065 6.30198 14.6183 6.4069C14.6386 6.53716 14.6443 6.66929 14.6352 6.80081Z" fill="white"/>
</svg>
