<svg width="20" height="20" viewBox="0 0 20 20" fill="none" xmlns="http://www.w3.org/2000/svg">
<path d="M10.2216 4.79224C7.46966 4.79224 5.23153 7.03022 5.23047 9.78103C5.23006 10.7238 5.49387 11.6419 5.99325 12.4362L6.11191 12.625L5.6079 14.466L7.49618 13.9707L7.67832 14.0788C8.44434 14.5333 9.32241 14.7739 10.2176 14.7742H10.2196C12.9696 14.7742 15.2076 12.5361 15.2087 9.78501C15.2092 8.45192 14.6908 7.19838 13.7489 6.25532C12.8069 5.31234 11.5542 4.79264 10.2216 4.79224ZM13.1562 11.9261C13.0313 12.2764 12.432 12.5962 12.1439 12.6393C11.8854 12.6779 11.5585 12.694 11.1992 12.5798C10.9814 12.5107 10.702 12.4184 10.3442 12.2639C8.8396 11.6142 7.85696 10.0993 7.78199 9.99915C7.70703 9.89908 7.16955 9.18588 7.16955 8.44757C7.16955 7.70939 7.55705 7.34649 7.69452 7.19631C7.83194 7.04622 7.99446 7.00865 8.09445 7.00865C8.19443 7.00865 8.29453 7.00959 8.38188 7.01393C8.47395 7.0186 8.5976 6.97896 8.71939 7.2714C8.84435 7.57176 9.14429 8.31002 9.18182 8.38511C9.21934 8.46016 9.24432 8.54776 9.19433 8.64786C9.14433 8.74789 9.11936 8.81051 9.04435 8.89807C8.96939 8.98567 8.88683 9.09361 8.81937 9.16082C8.74429 9.23562 8.66611 9.31681 8.75359 9.4669C8.8411 9.61712 9.1421 10.1082 9.588 10.506C10.1608 11.0169 10.6441 11.1753 10.7941 11.2504C10.9441 11.3255 11.0316 11.3129 11.1191 11.2129C11.2066 11.1128 11.494 10.7749 11.594 10.6248C11.694 10.4747 11.794 10.4997 11.9314 10.5497C12.0689 10.5998 12.8063 10.9626 12.9563 11.0376C13.1063 11.1127 13.2063 11.1503 13.2437 11.2129C13.2812 11.2754 13.2812 11.5757 13.1562 11.9261Z" fill="white"/>
<path d="M10.0002 0C4.47741 0 0 4.47669 0 9.99959C0 15.5225 4.47741 20 10.0002 20C15.5226 20 20 15.5225 20 9.99959C20 4.47669 15.5226 0 10.0002 0ZM10.2197 15.7878C10.2195 15.7878 10.2198 15.7878 10.2197 15.7878H10.2172C9.21257 15.7875 8.22539 15.5354 7.3487 15.0572L4.16662 15.8919L5.01821 12.7814C4.49292 11.8711 4.21653 10.8385 4.21698 9.78046C4.21828 6.47084 6.91108 3.77818 10.2196 3.77818C11.8253 3.77883 13.3325 4.40396 14.4658 5.53858C15.5991 6.67316 16.2229 8.18129 16.2223 9.78525C16.2208 13.0949 13.5279 15.7878 10.2197 15.7878Z" fill="white"/>
</svg>
